<?xml version="1.0" standalone="no"?>
<!DOCTYPE svg PUBLIC "-//W3C//DTD SVG 20010904//EN"
 "http://www.w3.org/TR/2001/REC-SVG-20010904/DTD/svg10.dtd">
<svg version="1.0" xmlns="http://www.w3.org/2000/svg"
 width="1418.000000pt" height="473.000000pt" viewBox="0 0 1418.000000 473.000000"
 preserveAspectRatio="xMidYMid meet">

<g transform="translate(0.000000,473.000000) scale(0.100000,-0.100000)"
fill="#000000" stroke="none">
<path d="M7050 3155 l0 -65 129 0 c115 0 131 2 155 21 22 18 66 86 66 104 0 3
-79 5 -175 5 l-175 0 0 -65z"/>
<path d="M1270 2275 l0 -675 105 0 105 0 0 170 0 170 42 85 c23 47 45 85 49
85 4 0 46 -115 94 -255 l88 -255 114 0 c62 0 113 3 113 6 0 4 -60 181 -134
394 l-134 387 143 279 144 279 -65 3 c-86 4 -161 -18 -205 -61 -24 -23 -66
-100 -139 -256 l-105 -222 -3 270 -2 271 -105 0 -105 0 0 -675z"/>
<path d="M2050 2275 l0 -675 290 0 290 0 0 105 0 105 -185 0 -185 0 0 180 0
180 100 0 c152 0 190 31 190 155 l0 55 -145 0 -145 0 0 180 0 180 185 0 185 0
0 105 0 105 -290 0 -290 0 0 -675z"/>
<path d="M2981 2935 c-48 -15 -85 -45 -109 -90 -15 -27 -17 -87 -20 -532 l-3
-502 -46 -3 -46 -3 -28 -83 c-16 -46 -31 -92 -34 -103 -6 -19 3 -19 394 -19
l401 0 0 675 0 675 -232 -1 c-167 0 -245 -4 -277 -14z m299 -660 l0 -465 -110
0 -110 0 0 445 c0 529 -12 485 132 485 l88 0 0 -465z"/>
<path d="M4444 2931 c-55 -25 -101 -83 -114 -145 -8 -35 -10 -212 -8 -546 l3
-495 28 -47 c18 -31 44 -57 75 -75 47 -28 49 -28 223 -28 l176 0 48 30 c35 21
56 45 74 80 l26 49 0 521 c0 513 0 521 -22 560 -53 99 -96 115 -305 115 -137
0 -170 -3 -204 -19z m289 -192 c12 -7 25 -17 29 -23 4 -6 8 -206 8 -445 0
-390 -2 -436 -17 -453 -13 -15 -31 -18 -101 -18 -133 0 -122 -44 -122 469 0
240 4 441 8 447 15 23 49 33 110 34 35 0 73 -5 85 -11z"/>
<path d="M5840 2275 l0 -676 258 3 c257 3 259 3 295 28 20 13 46 43 59 65 22
38 23 52 26 264 4 295 -9 345 -101 393 -35 18 -65 22 -184 26 l-143 5 0 283 0
284 -105 0 -105 0 0 -675z m393 -116 c12 -7 25 -17 29 -23 4 -6 8 -74 8 -150
0 -178 2 -176 -127 -176 l-93 0 0 180 0 180 81 0 c44 0 90 -5 102 -11z"/>
<path d="M6570 2275 l0 -675 105 0 105 0 0 675 0 675 -105 0 -105 0 0 -675z"/>
<path d="M6880 2275 l0 -675 71 0 c95 0 140 25 173 94 13 28 66 190 118 359
l93 309 3 -381 2 -381 100 0 100 0 0 675 0 675 -58 0 c-70 0 -137 -31 -167
-76 -11 -17 -65 -176 -119 -355 -54 -178 -102 -327 -105 -331 -3 -4 -5 166 -2
377 l3 385 -106 0 -106 0 0 -675z"/>
<path d="M10223 2943 l-323 -3 0 -670 0 -670 105 0 105 0 0 570 0 570 115 0
115 0 0 -570 0 -570 105 0 105 0 0 675 c0 371 -1 674 -2 673 -2 -2 -148 -4
-325 -5z"/>
<path d="M10925 2931 c-49 -22 -101 -79 -110 -119 -3 -17 -48 -296 -99 -621
l-92 -591 108 0 c59 0 108 3 109 8 0 4 8 61 17 127 l17 120 114 3 c63 1 118
-1 122 -5 4 -4 15 -63 25 -130 l17 -123 108 0 109 0 -6 28 c-10 59 -204 1301
-204 1311 0 20 -189 13 -235 -8z m120 -558 c23 -164 40 -301 38 -305 -2 -5
-42 -8 -89 -8 -73 0 -84 2 -84 18 0 34 84 602 88 597 2 -2 24 -138 47 -302z"/>
<path d="M11653 2942 l-213 -2 0 -670 0 -670 105 0 105 0 0 259 0 259 148 4
c164 4 191 12 237 72 38 50 48 135 43 385 -3 201 -5 219 -26 263 -28 56 -72
86 -139 96 -26 4 -144 6 -260 4z m192 -227 c24 -24 25 -28 25 -185 0 -202 1
-200 -130 -200 l-90 0 0 205 0 205 85 0 c78 0 88 -2 110 -25z"/>
<path d="M12170 2275 l0 -675 105 0 105 0 0 170 0 170 40 79 c22 44 44 82 49
85 5 3 48 -109 97 -249 l87 -255 114 0 c62 0 113 3 113 8 0 4 -61 180 -134
392 l-134 385 144 283 145 282 -69 0 c-90 0 -160 -22 -203 -63 -24 -23 -66
-101 -139 -256 l-105 -222 -3 270 -2 271 -105 0 -105 0 0 -675z"/>
<path d="M3590 2270 l0 -670 105 0 105 0 0 260 0 260 138 1 c79 0 151 6 170
13 46 16 100 72 112 115 5 20 10 150 10 291 0 277 -5 306 -61 357 -43 39 -71
43 -330 43 l-249 0 0 -670z m408 454 c21 -15 22 -21 22 -186 0 -215 4 -208
-127 -208 l-93 0 0 205 0 205 88 0 c63 0 94 -4 110 -16z"/>
<path d="M5100 2270 l0 -670 243 0 c267 0 299 7 345 65 38 49 44 89 40 312 -3
210 -3 212 -28 238 -14 15 -41 35 -60 46 -24 12 -29 18 -17 19 11 0 32 9 48
21 55 39 59 58 59 286 0 226 -7 260 -61 310 -43 39 -71 43 -325 43 l-244 0 0
-670z m398 454 c21 -14 22 -22 22 -164 0 -185 4 -180 -126 -180 l-94 0 0 173
c0 96 3 177 7 180 14 15 168 7 191 -9z m0 -570 c21 -14 22 -22 22 -164 0 -185
4 -180 -126 -180 l-94 0 0 173 c0 96 3 177 7 180 14 15 168 7 191 -9z"/>
</g>
</svg>
